<?xml version="1.0" encoding="UTF-8"?>
<svg width="700pt" height="700pt" version="1.1" viewBox="0 0 700 700" xmlns="http://www.w3.org/2000/svg" xmlns:xlink="http://www.w3.org/1999/xlink">
 <defs>
  <symbol id="k" overflow="visible">
   <path d="m29.312-1.75c-1.5117 0.78125-3.0898 1.3711-4.7344 1.7656-1.6367 0.40625-3.3398 0.60938-5.1094 0.60938-5.3125 0-9.5273-1.4844-12.641-4.4531-3.1055-2.9688-4.6562-7-4.6562-12.094s1.5508-9.125 4.6562-12.094c3.1133-2.9688 7.3281-4.4531 12.641-4.4531 1.7695 0 3.4727 0.19922 5.1094 0.59375 1.6445 0.39844 3.2227 0.99219 4.7344 1.7812v6.5938c-1.5312-1.0391-3.0391-1.8008-4.5156-2.2812-1.4805-0.48828-3.0391-0.73438-4.6719-0.73438-2.9375 0-5.2461 0.94531-6.9219 2.8281-1.6797 1.875-2.5156 4.4648-2.5156 7.7656 0 3.293 0.83594 5.8828 2.5156 7.7656 1.6758 1.875 3.9844 2.8125 6.9219 2.8125 1.6328 0 3.1914-0.23828 4.6719-0.71875 1.4766-0.48828 2.9844-1.2539 4.5156-2.2969z"/>
  </symbol>
  <symbol id="b" overflow="visible">
   <path d="m21.453-17.406c-0.67969-0.3125-1.3516-0.53906-2.0156-0.6875-0.65625-0.15625-1.3203-0.23438-1.9844-0.23438-1.9688 0-3.4844 0.63281-4.5469 1.8906-1.0547 1.2617-1.5781 3.0703-1.5781 5.4219v11.016h-7.6562v-23.922h7.6562v3.9219c0.97656-1.5625 2.1016-2.7031 3.375-3.4219 1.2812-0.71875 2.8125-1.0781 4.5938-1.0781 0.25 0 0.52344 0.011719 0.82812 0.03125 0.30078 0.023438 0.73438 0.070312 1.2969 0.14062z"/>
  </symbol>
  <symbol id="a" overflow="visible">
   <path d="m27.562-12.031v2.1875h-17.891c0.1875 1.793 0.83203 3.1367 1.9375 4.0312 1.1133 0.89844 2.6719 1.3438 4.6719 1.3438 1.6016 0 3.25-0.23438 4.9375-0.70312 1.6875-0.47656 3.4219-1.2031 5.2031-2.1719v5.8906c-1.8047 0.6875-3.6094 1.2031-5.4219 1.5469-1.8125 0.35156-3.6211 0.53125-5.4219 0.53125-4.3359 0-7.7031-1.0977-10.109-3.2969-2.3984-2.207-3.5938-5.2969-3.5938-9.2656 0-3.9062 1.1758-6.9727 3.5312-9.2031 2.3633-2.2383 5.6094-3.3594 9.7344-3.3594 3.7578 0 6.7695 1.1367 9.0312 3.4062 2.2578 2.2617 3.3906 5.2812 3.3906 9.0625zm-7.8594-2.5312c0-1.457-0.42969-2.6289-1.2812-3.5156-0.84375-0.89453-1.9492-1.3438-3.3125-1.3438-1.4922 0-2.6992 0.41797-3.625 1.25-0.91797 0.83594-1.4922 2.0391-1.7188 3.6094z"/>
  </symbol>
  <symbol id="h" overflow="visible">
   <path d="m14.391-10.766c-1.5938 0-2.793 0.27344-3.5938 0.8125-0.80469 0.54297-1.2031 1.3398-1.2031 2.3906 0 0.96875 0.32031 1.7305 0.96875 2.2812 0.64453 0.54297 1.5469 0.8125 2.7031 0.8125 1.4375 0 2.6445-0.51562 3.625-1.5469 0.98828-1.0312 1.4844-2.3203 1.4844-3.875v-0.875zm11.688-2.8906v13.656h-7.7031v-3.5469c-1.0312 1.4492-2.1875 2.5078-3.4688 3.1719s-2.8398 1-4.6719 1c-2.4805 0-4.4961-0.72266-6.0469-2.1719-1.543-1.4453-2.3125-3.3203-2.3125-5.625 0-2.8125 0.96094-4.8672 2.8906-6.1719 1.9375-1.3125 4.9688-1.9688 9.0938-1.9688h4.5156v-0.60938c0-1.207-0.48047-2.0938-1.4375-2.6562-0.94922-0.5625-2.4375-0.84375-4.4688-0.84375-1.6367 0-3.1562 0.16797-4.5625 0.5-1.4062 0.32422-2.7188 0.8125-3.9375 1.4688v-5.8281c1.6445-0.40625 3.2891-0.70703 4.9375-0.90625 1.6562-0.20703 3.3047-0.3125 4.9531-0.3125 4.3203 0 7.4375 0.85547 9.3438 2.5625 1.9141 1.6992 2.875 4.4609 2.875 8.2812z"/>
  </symbol>
  <symbol id="g" overflow="visible">
   <path d="m12.031-30.719v6.7969h7.875v5.4688h-7.875v10.141c0 1.1172 0.21875 1.8711 0.65625 2.2656 0.4375 0.38672 1.3125 0.57812 2.625 0.57812h3.9375v5.4688h-6.5625c-3.0234 0-5.1641-0.62891-6.4219-1.8906-1.2617-1.2578-1.8906-3.3984-1.8906-6.4219v-10.141h-3.7969v-5.4688h3.7969v-6.7969z"/>
  </symbol>
  <symbol id="f" overflow="visible">
   <path d="m19.953-20.422v-12.812h7.6875v33.234h-7.6875v-3.4531c-1.0547 1.4062-2.2148 2.4375-3.4844 3.0938-1.2734 0.65625-2.7422 0.98438-4.4062 0.98438-2.9492 0-5.3711-1.1719-7.2656-3.5156-1.8867-2.3438-2.8281-5.3594-2.8281-9.0469s0.94141-6.7031 2.8281-9.0469c1.8945-2.3438 4.3164-3.5156 7.2656-3.5156 1.6562 0 3.1172 0.33594 4.3906 1 1.2812 0.65625 2.4453 1.6836 3.5 3.0781zm-5.0469 15.484c1.6445 0 2.8945-0.59766 3.75-1.7969 0.86328-1.1953 1.2969-2.9297 1.2969-5.2031 0-2.2812-0.43359-4.0195-1.2969-5.2188-0.85547-1.1953-2.1055-1.7969-3.75-1.7969-1.625 0-2.8711 0.60156-3.7344 1.7969-0.85547 1.1992-1.2812 2.9375-1.2812 5.2188 0 2.2734 0.42578 4.0078 1.2812 5.2031 0.86328 1.1992 2.1094 1.7969 3.7344 1.7969z"/>
  </symbol>
  <symbol id="e" overflow="visible">
   <path d="m16.406-4.9375c1.6328 0 2.8828-0.59766 3.75-1.7969 0.86328-1.1953 1.2969-2.9297 1.2969-5.2031 0-2.2812-0.43359-4.0195-1.2969-5.2188-0.86719-1.1953-2.1172-1.7969-3.75-1.7969-1.6367 0-2.8906 0.60547-3.7656 1.8125-0.875 1.1992-1.3125 2.9336-1.3125 5.2031 0 2.2617 0.4375 3.9961 1.3125 5.2031 0.875 1.1992 2.1289 1.7969 3.7656 1.7969zm-5.0781-15.484c1.0508-1.3945 2.2188-2.4219 3.5-3.0781 1.2812-0.66406 2.7539-1 4.4219-1 2.9453 0 5.3672 1.1719 7.2656 3.5156 1.8945 2.3438 2.8438 5.3594 2.8438 9.0469s-0.94922 6.7031-2.8438 9.0469c-1.8984 2.3438-4.3203 3.5156-7.2656 3.5156-1.668 0-3.1406-0.33594-4.4219-1s-2.4492-1.6914-3.5-3.0781v3.4531h-7.6562v-33.234h7.6562z"/>
  </symbol>
  <symbol id="d" overflow="visible">
   <path d="m0.53125-23.922h7.6562l6.4219 16.234 5.4688-16.234h7.6562l-10.062 26.188c-1.0117 2.6641-2.1953 4.5234-3.5469 5.5781-1.3438 1.0625-3.1211 1.5938-5.3281 1.5938h-4.4219v-5.0156h2.3906c1.3008 0 2.2422-0.21094 2.8281-0.625 0.59375-0.40625 1.0547-1.1484 1.3906-2.2188l0.20312-0.65625z"/>
  </symbol>
  <symbol id="c" overflow="visible">
   <path d="m4.0156-31.891h9.1875l11.594 21.875v-21.875h7.7969v31.891h-9.1875l-11.594-21.875v21.875h-7.7969z"/>
  </symbol>
  <symbol id="j" overflow="visible">
   <path d="m27.734-14.562v14.562h-7.7031v-11.109c0-2.0938-0.046875-3.5312-0.14062-4.3125-0.085937-0.78125-0.24219-1.3594-0.46875-1.7344-0.30469-0.5-0.71094-0.88281-1.2188-1.1562-0.51172-0.28125-1.0938-0.42188-1.75-0.42188-1.5938 0-2.8516 0.61719-3.7656 1.8438-0.90625 1.2305-1.3594 2.9375-1.3594 5.125v11.766h-7.6562v-33.234h7.6562v12.812c1.1445-1.3945 2.3633-2.4219 3.6562-3.0781 1.3008-0.66406 2.7383-1 4.3125-1 2.7578 0 4.8516 0.85156 6.2812 2.5469 1.4375 1.6875 2.1562 4.1523 2.1562 7.3906z"/>
  </symbol>
  <symbol id="i" overflow="visible">
   <path d="m15.062-19.031c-1.6992 0-2.9961 0.60938-3.8906 1.8281-0.88672 1.2188-1.3281 2.9766-1.3281 5.2656 0 2.293 0.44141 4.0469 1.3281 5.2656 0.89453 1.2188 2.1914 1.8281 3.8906 1.8281 1.6641 0 2.9375-0.60938 3.8125-1.8281 0.88281-1.2188 1.3281-2.9727 1.3281-5.2656 0-2.2891-0.44531-4.0469-1.3281-5.2656-0.875-1.2188-2.1484-1.8281-3.8125-1.8281zm0-5.4688c4.1133 0 7.3281 1.1094 9.6406 3.3281s3.4688 5.2969 3.4688 9.2344c0 3.9297-1.1562 7.0078-3.4688 9.2344-2.3125 2.2188-5.5273 3.3281-9.6406 3.3281-4.1367 0-7.3711-1.1094-9.7031-3.3281-2.3242-2.2266-3.4844-5.3047-3.4844-9.2344 0-3.9375 1.1602-7.0156 3.4844-9.2344 2.332-2.2188 5.5664-3.3281 9.7031-3.3281z"/>
  </symbol>
 </defs>
 <g>
  <path d="m113.75 507.5c0 5.25 3.5 8.75 8.75 8.75 14.875 0 26.25 11.375 26.25 26.25 0 5.25 3.5 8.75 8.75 8.75s8.75-3.5 8.75-8.75c0-21-14.875-39.375-35.875-42.875-3.5-21-21.875-35.875-42.875-35.875-5.25 0-8.75 3.5-8.75 8.75s3.5 8.75 8.75 8.75c14.875 0 26.25 11.375 26.25 26.25z"/>
  <path d="m157.5 70h-52.5c-5.25 0-8.75 3.5-8.75 8.75s3.5 8.75 8.75 8.75h52.5c16.625 0 30.625-14 30.625-30.625s-14-30.625-30.625-30.625h-9.625c-4.375-20.125-21.875-35-42.875-35-5.25 0-8.75 3.5-8.75 8.75s3.5 8.75 8.75 8.75c14.875 0 26.25 11.375 26.25 26.25 0 5.25 3.5 8.75 8.75 8.75h17.5c7 0 13.125 6.125 13.125 13.125s-6.125 13.125-13.125 13.125z"/>
  <path d="m525 122.5h52.5c5.25 0 8.75-3.5 8.75-8.75s-3.5-8.75-8.75-8.75h-52.5c-7 0-13.125-6.125-13.125-13.125s6.125-13.125 13.125-13.125h35c5.25 0 8.75-3.5 8.75-8.75 0-14.875 11.375-26.25 26.25-26.25 5.25 0 8.75-3.5 8.75-8.75s-3.5-8.75-8.75-8.75c-21 0-38.5 14.875-42.875 35h-27.125c-16.625 0-30.625 14-30.625 30.625s14 30.625 30.625 30.625z"/>
  <path d="m621.25 428.75c0-5.25-3.5-8.75-8.75-8.75-21 0-39.375 14.875-42.875 35.875-17.5 3.5-31.5 16.625-35 34.125h-27.125c-16.625 0-30.625 14-30.625 30.625s14 30.625 30.625 30.625h26.25c5.25 0 8.75-3.5 8.75-8.75s-3.5-8.75-8.75-8.75h-26.25c-7 0-13.125-6.125-13.125-13.125s6.125-13.125 13.125-13.125h35c5.25 0 8.75-3.5 8.75-8.75 0-14.875 11.375-26.25 26.25-26.25 5.25 0 8.75-3.5 8.75-8.75 0-14.875 11.375-26.25 26.25-26.25 5.25 0 8.75-3.5 8.75-8.75z"/>
  <path d="m280 96.25h13.125c0.875 7 3.5 13.125 7.875 18.375l-9.625 9.625c-3.5 3.5-3.5 8.75 0 12.25s8.75 3.5 12.25 0l9.625-9.625c5.25 3.5 12.25 6.125 18.375 7.875v14c0 5.25 3.5 8.75 8.75 8.75s8.75-3.5 8.75-8.75v-14c7-0.875 13.125-3.5 18.375-7.875l9.625 9.625c3.5 3.5 8.75 3.5 12.25 0s3.5-8.75 0-12.25l-9.625-9.625c3.5-5.25 6.125-12.25 7.875-18.375h14.875c5.25 0 8.75-3.5 8.75-8.75s-3.5-8.75-8.75-8.75h-13.125c-0.875-7-3.5-13.125-7.875-18.375l9.625-9.625c3.5-3.5 3.5-8.75 0-12.25s-8.75-3.5-12.25 0l-9.625 9.625c-6.125-4.375-12.25-7-19.25-7.875v-14c0-5.25-3.5-8.75-8.75-8.75s-8.75 3.5-8.75 8.75v14c-7 0.875-13.125 3.5-18.375 7.875l-9.625-9.625c-3.5-3.5-8.75-3.5-12.25 0s-3.5 8.75 0 12.25l9.625 9.625c-4.375 5.25-7 11.375-8.75 18.375h-13.125c-5.25 0-8.75 3.5-8.75 8.75s3.5 8.75 8.75 8.75zm61.25-39.375c17.5 0 30.625 14 30.625 30.625s-13.125 30.625-30.625 30.625-30.625-13.125-30.625-30.625 13.125-30.625 30.625-30.625z"/>
  <path d="m192.5 481.25h17.5v17.5h-17.5z"/>
  <path d="m236.25 411.25h17.5v17.5h-17.5z"/>
  <path d="m157.5 367.5h17.5v17.5h-17.5z"/>
  <path d="m105 428.75h17.5v17.5h-17.5z"/>
  <path d="m87.5 323.75h17.5v17.5h-17.5z"/>
  <path d="m227.5 315h17.5v17.5h-17.5z"/>
  <path d="m455 472.5h17.5v17.5h-17.5z"/>
  <path d="m533.75 402.5h17.5v17.5h-17.5z"/>
  <path d="m472.5 376.25h17.5v17.5h-17.5z"/>
  <path d="m411.25 323.75h17.5v17.5h-17.5z"/>
  <path d="m560 315h17.5v17.5h-17.5z"/>
  <path d="m84.875 286.12 93.625-93.625h80.5l87.5 87.5-71.75 63.875c-3.5 3.5-4.375 8.75-0.875 12.25l63 63-133 134.75c-3.5 3.5-3.5 8.75 0 12.25s8.75 3.5 12.25 0l140-140c3.5-3.5 3.5-8.75 0-12.25l-63-63.875 45.5-40.25-14 36.75c-0.875 3.5 0 7 2.625 9.625l75.25 66.5-26.25 135.62c-0.875 4.375 2.625 9.625 7 10.5h1.75c4.375 0 7.875-2.625 8.75-7l26.25-140c0.875-2.625-0.875-6.125-2.625-7.875l-74.375-65.625 24.5-64.75v-0.875-1.75-1.75-1.75c0-0.875-0.875-0.875-0.875-1.75 0 0 0-0.875-0.875-0.875l-21-21 61.25-61.25h115.5l93.625 93.625c3.5 3.5 8.75 3.5 12.25 0s3.5-8.75 0-12.25l-157.5-157.5c-3.5-3.5-8.75-3.5-12.25 0l-125.12 125.12-107.62-107.62c-3.5-3.5-8.75-3.5-12.25 0l-140 140c-3.5 3.5-3.5 8.75 0 12.25s8.75 3.5 12.25 0zm378.88-151.38 40.25 40.25h-80.5zm-245 17.5 22.75 22.75h-45.5z"/>
  <path d="m81.375 154.88c3.5 3.5 8.75 3.5 12.25 0l2.625-2.625 2.625 2.625c3.5 3.5 8.75 3.5 12.25 0s3.5-8.75 0-12.25l-2.625-2.625 2.625-2.625c3.5-3.5 3.5-8.75 0-12.25s-8.75-3.5-12.25 0l-2.625 2.625-2.625-2.625c-3.5-3.5-8.75-3.5-12.25 0s-3.5 8.75 0 12.25l2.625 2.625-2.625 2.625c-5.25 0-8.75 1.75-8.75 6.125s3.5 8.75 8.75 6.125z"/>
  <path d="m440.12 32.375c3.5 3.5 8.75 3.5 12.25 0l2.625-2.625 2.625 2.625c3.5 3.5 8.75 3.5 12.25 0s3.5-8.75 0-12.25l-2.625-2.625 2.625-2.625c3.5-3.5 3.5-8.75 0-12.25s-8.75-3.5-12.25 0l-2.625 2.625-2.625-2.625c-3.5-3.5-8.75-3.5-12.25 0s-3.5 8.75 0 12.25l2.625 2.625-2.625 2.625c-3.5 3.5-3.5 8.75 0 12.25z"/>
  <use x="70" y="691.25" xlink:href="#k"/>
  <use x="102.109375" y="691.25" xlink:href="#b"/>
  <use x="123.683594" y="691.25" xlink:href="#a"/>
  <use x="153.355469" y="691.25" xlink:href="#h"/>
  <use x="182.878906" y="691.25" xlink:href="#g"/>
  <use x="203.792969" y="691.25" xlink:href="#a"/>
  <use x="233.464844" y="691.25" xlink:href="#f"/>
  <use x="280.011719" y="691.25" xlink:href="#e"/>
  <use x="311.328125" y="691.25" xlink:href="#d"/>
  <use x="355.078125" y="691.25" xlink:href="#c"/>
  <use x="391.695312" y="691.25" xlink:href="#j"/>
  <use x="422.839844" y="691.25" xlink:href="#i"/>
  <use x="452.898438" y="691.25" xlink:href="#b"/>
 </g>
</svg>
